<svg width="405.6614990234375px" height="120.8px" xmlns="http://www.w3.org/2000/svg" viewBox="47.16925048828125 14.600000000000001 405.6614990234375 120.8" style="background: rgba(0, 0, 0, 0);" preserveAspectRatio="xMidYMid"><defs><filter id="editing-extrusion" x="-100%" y="-100%" width="300%" height="300%"><feFlood result="color1" flood-color="#444"></feFlood><feConvolveMatrix order="8,8" divisor="1" kernelMatrix="1 0 0 0 0 0 0 0 0 1 0 0 0 0 0 0 0 0 1 0 0 0 0 0 0 0 0 1 0 0 0 0 0 0 0 0 1 0 0 0 0 0 0 0 0 1 0 0 0 0 0 0 0 0 1 0 0 0 0 0 0 0 0 1" in="SourceAlpha" result="extrude"></feConvolveMatrix><feComposite in="color1" in2="extrude" result="comp-extrude" operator="in"></feComposite><feOffset dx="4" dy="4" in="comp-extrude" result="offset-extrude"></feOffset><feMerge><feMergeNode in="offset-extrude"></feMergeNode><feMergeNode in="SourceGraphic"></feMergeNode></feMerge></filter></defs><g filter="url(#editing-extrusion)"><g transform="translate(110.53407859802246, 104.79000091552734)"><path d="M29.18 1.28L29.18 1.28L29.18 1.28Q20.99 1.28 20.22-10.37L20.22-10.37L9.22-10.37L9.22-10.37Q7.94-7.42 7.04-4.86L7.04-4.86L5.38 0L-3.58 0L16.58-42.24L30.34-42.24L33.02-11.14L33.02-11.14Q33.66-4.42 36.22-2.43L36.22-2.43L36.22-2.43Q34.37 1.28 29.18 1.28ZM14.72-23.17L11.20-15.04L20.03-15.04L19.26-31.49L19.26-33.22L14.72-23.17ZM60.48-2.69L60.48-2.69L60.48-2.69Q57.41 1.28 49.79 1.28L49.79 1.28L49.79 1.28Q45.82 1.28 42.94-1.12L42.94-1.12L42.94-1.12Q40.06-3.52 40.06-6.98L40.06-6.98L40.06-6.98Q40.06-8.90 40.26-9.86L40.26-9.86L44.54-32.64L57.54-33.92L52.86-9.22L52.86-9.22Q52.61-7.81 52.61-6.98L52.61-6.98L52.61-6.98Q52.61-3.26 54.85-3.26L54.85-3.26L54.85-3.26Q57.34-3.26 59.14-6.66L59.14-6.66L59.14-6.66Q59.71-7.74 59.97-9.15L59.97-9.15L64.51-32.64L77.12-33.92L72.38-8.96L72.38-8.96Q72.19-8 72.19-6.98L72.19-6.98L72.19-6.98Q72.19-5.95 72.77-4.83L72.77-4.83L72.77-4.83Q73.34-3.71 75.20-3.46L75.20-3.46L75.20-3.46Q74.82-1.92 73.47-0.90L73.47-0.90L73.47-0.90Q70.66 1.28 67.62 1.28L67.62 1.28L67.62 1.28Q64.58 1.28 62.78 0.19L62.78 0.19L62.78 0.19Q60.99-0.90 60.48-2.69ZM100.48-33.92L100.48-33.92L100.48-33.92Q102.78-33.92 104.58-33.41L104.58-33.41L104.58-33.41Q104.64-33.66 104.77-34.37L104.77-34.37L105.09-36.35L105.09-36.35Q105.34-37.63 105.73-39.74L105.73-39.74L106.75-44.80L119.49-46.08L112.38-8.96L112.38-8.96Q112.32-8.58 112.32-7.94L112.32-7.94L112.32-6.91L112.32-6.91Q112.32-5.50 113.02-4.45L113.02-4.45L113.02-4.45Q113.73-3.39 114.88-3.39L114.88-3.39L114.88-3.39Q113.60-0.38 109.70 0.90L109.70 0.90L109.70 0.90Q108.35 1.28 106.46 1.28L106.46 1.28L106.46 1.28Q104.58 1.28 102.85 0.29L102.85 0.29L102.85 0.29Q101.12-0.70 100.61-2.37L100.61-2.37L100.61-2.37Q99.58-0.70 97.54 0.29L97.54 0.29L97.54 0.29Q95.49 1.28 92.51 1.28L92.51 1.28L92.51 1.28Q89.54 1.28 87.07 0.51L87.07 0.51L87.07 0.51Q84.61-0.26 83.07-1.92L83.07-1.92L83.07-1.92Q80.26-5.18 80.26-12.61L80.26-12.61L80.26-12.61Q80.26-22.21 85.89-28.03L85.89-28.03L85.89-28.03Q91.52-33.92 100.48-33.92ZM100.03-30.08L100.03-30.08L100.03-30.08Q97.66-30.08 96.38-27.52L96.38-27.52L96.38-27.52Q95.10-24.96 93.79-18.62L93.79-18.62L93.79-18.62Q92.48-12.29 92.48-6.59L92.48-6.59L92.48-6.59Q92.48-2.69 94.78-2.69L94.78-2.69L94.78-2.69Q96.83-2.69 98.27-4.74L98.27-4.74L98.27-4.74Q99.71-6.78 100.29-10.18L100.29-10.18L103.74-28.93L103.74-28.93Q102.40-30.08 100.03-30.08ZM135.68-3.52L135.68-3.52L135.68-3.52Q133.70 1.28 127.36 1.28L127.36 1.28L127.36 1.28Q124.10 1.28 122.05-0.96L122.05-0.96L122.05-0.96Q120.32-2.94 120.32-4.93L120.32-4.93L120.32-4.93Q120.32-10.11 122.69-20.22L122.69-20.22L125.06-32.64L138.05-33.92L134.14-13.70L134.14-13.70Q133.06-8.96 133.06-7.30L133.06-7.30L133.06-7.30Q133.06-3.65 135.68-3.52ZM126.21-41.54L126.21-41.54L126.21-41.54Q126.21-44.03 128.29-45.38L128.29-45.38L128.29-45.38Q130.37-46.72 133.38-46.72L133.38-46.72L133.38-46.72Q136.38-46.72 138.21-45.38L138.21-45.38L138.21-45.38Q140.03-44.03 140.03-41.54L140.03-41.54L140.03-41.54Q140.03-39.04 138.02-37.76L138.02-37.76L138.02-37.76Q136-36.48 132.99-36.48L132.99-36.48L132.99-36.48Q129.98-36.48 128.10-37.76L128.10-37.76L128.10-37.76Q126.21-39.04 126.21-41.54ZM166.08-37.12L166.08-37.12L166.08-37.12Q166.98-38.66 166.98-40.32L166.98-40.32L166.98-40.32Q166.98-43.26 165.18-43.26L165.18-43.26L165.18-43.26Q162.43-43.26 161.28-37.63L161.28-37.63L160.32-32.64L166.14-32.64L165.76-29.76L159.74-29.76L153.98 0L141.06 1.28L147.20-29.76L142.66-29.76L143.23-32.64L147.71-32.64L149.06-37.70L149.06-37.70Q150.21-42.37 155.14-44.54L155.14-44.54L155.14-44.54Q158.72-46.08 164.74-46.08L164.74-46.08L164.74-46.08Q170.75-46.08 173.44-44.54L173.44-44.54L173.44-44.54Q176.13-43.01 176.13-40.96L176.13-40.96L176.13-40.96Q176.13-38.91 174.53-37.63L174.53-37.63L174.53-37.63Q172.93-36.35 171.14-36.35L171.14-36.35L171.14-36.35Q167.62-36.35 166.08-37.12ZM185.92-7.23L185.92-7.23L185.92-7.23Q182.59-3.78 176.51-3.78L176.51-3.78L176.51-3.78Q168.90-3.78 167.30-9.34L167.30-9.34L167.30-9.34Q166.78-11.01 166.78-12.86L166.78-12.86L166.78-12.86Q166.78-14.72 167.17-16.64L167.17-16.64L170.18-32.64L183.17-33.92L179.65-15.30L179.65-15.30Q179.52-14.46 179.33-13.57L179.33-13.57L179.33-13.57Q179.14-12.67 179.14-11.74L179.14-11.74L179.14-11.74Q179.14-10.82 179.46-10.21L179.46-10.21L179.46-10.21Q179.78-9.60 180.22-9.22L180.22-9.22L180.22-9.22Q180.99-8.70 182.37-8.70L182.37-8.70L182.37-8.70Q183.74-8.70 184.93-10.37L184.93-10.37L184.93-10.37Q186.11-12.03 186.69-14.91L186.69-14.91L190.21-32.64L202.82-33.92L198.02-8.77L198.02-8.77Q195.65 3.52 190.78 8.38L190.78 8.38L190.78 8.38Q188.29 10.88 185.06 11.87L185.06 11.87L185.06 11.87Q181.82 12.86 177.66 12.86L177.66 12.86L177.66 12.86Q170.94 12.86 167.10 10.75L167.10 10.75L167.10 10.75Q163.26 8.64 163.26 5.12L163.26 5.12L163.26 5.12Q163.26 2.50 165.25 0.99L165.25 0.99L165.25 0.99Q167.23-0.51 170.30-0.51L170.30-0.51L170.30-0.51Q172.99-0.51 175.04 0.64L175.04 0.64L175.04 0.64Q176.26 1.34 176.83 2.24L176.83 2.24L176.83 2.24Q175.36 3.52 175.36 5.63L175.36 5.63L175.36 5.63Q175.36 8.45 177.92 8.45L177.92 8.45L177.92 8.45Q182.14 8.45 184.58-1.28L184.58-1.28L184.58-1.28Q185.28-4.16 185.92-7.23ZM246.40 1.28L246.40 1.28L246.40 1.28Q238.21 1.28 237.44-10.37L237.44-10.37L226.43-10.37L226.43-10.37Q225.15-7.42 224.26-4.86L224.26-4.86L222.59 0L213.63 0L233.79-42.24L247.55-42.24L250.24-11.14L250.24-11.14Q250.88-4.42 253.44-2.43L253.44-2.43L253.44-2.43Q251.58 1.28 246.40 1.28ZM231.94-23.17L228.42-15.04L237.25-15.04L236.48-31.49L236.48-33.22L231.94-23.17ZM270.40 0L256.45 0L264.58-42.24L278.66-42.24L270.40 0Z" fill="#ccc"></path></g></g><style>text {
  font-size: 64px;
  font-family: Arial Black;
  dominant-baseline: central;
  text-anchor: middle;
}</style></svg>